<?xml version="1.0" encoding="utf-8"?>
<!-- Generator: Adobe Illustrator 19.1.0, SVG Export Plug-In . SVG Version: 6.00 Build 0)  -->
<!DOCTYPE svg PUBLIC "-//W3C//DTD SVG 1.1//EN" "http://www.w3.org/Graphics/SVG/1.1/DTD/svg11.dtd">
<svg version="1.1" id="Ebene_1" xmlns="http://www.w3.org/2000/svg" xmlns:xlink="http://www.w3.org/1999/xlink" x="0px" y="0px"
	 width="130px" height="70.4px" viewBox="0 0 130 70.4" enable-background="new 0 0 130 70.4" xml:space="preserve">
<g>
	<defs>
		<rect id="SVGID_1_" x="-36" width="202.3" height="79.6"/>
	</defs>
	<clipPath id="SVGID_2_">
		<use xlink:href="#SVGID_1_"  overflow="visible"/>
	</clipPath>
	<path clip-path="url(#SVGID_2_)" fill="#F15A29" d="M45.4,23.5c0-2.2,0.4-4.3,1.1-6.3L43.6,16c-0.8,2.3-1.3,4.9-1.3,7.5
		c0,11.8,9.1,21.6,20.7,22.6V43C53.1,42,45.4,33.6,45.4,23.5"/>
	<path clip-path="url(#SVGID_2_)" fill="none" stroke="#F15A29" stroke-miterlimit="10" d="M45.4,23.5c0-2.2,0.4-4.3,1.1-6.3
		L43.6,16c-0.8,2.3-1.3,4.9-1.3,7.5c0,11.8,9.1,21.6,20.7,22.6V43C53.1,42,45.4,33.6,45.4,23.5z"/>
	<path clip-path="url(#SVGID_2_)" fill="#6792A1" d="M85.2,12.7c-3.8-7.2-11.4-12-20.1-12c-8.6,0-16.1,4.8-20,11.9l2.9,1.2
		c3.4-5.9,9.8-10,17.1-10c7.4,0,13.8,4.1,17.2,10.1L85.2,12.7z"/>
	<path clip-path="url(#SVGID_2_)" fill="none" stroke="#6792A1" stroke-miterlimit="10" d="M85.2,12.7c-3.8-7.2-11.4-12-20.1-12
		c-8.6,0-16.1,4.8-20,11.9l2.9,1.2c3.4-5.9,9.8-10,17.1-10c7.4,0,13.8,4.1,17.2,10.1L85.2,12.7z"/>
	<path clip-path="url(#SVGID_2_)" fill="#A2A190" d="M87.9,23.5c0-2.6-0.5-5-1.2-7.3l-2.8,1.1c0.6,1.9,1,4,1,6.1
		c0,10.3-8,18.8-18.1,19.6v3.1C78.6,45.3,87.9,35.5,87.9,23.5"/>
	<path clip-path="url(#SVGID_2_)" fill="none" stroke="#A3A790" stroke-miterlimit="10" d="M87.9,23.5c0-2.6-0.5-5-1.2-7.3l-2.8,1.1
		c0.6,1.9,1,4,1,6.1c0,10.3-8,18.8-18.1,19.6v3.1C78.6,45.3,87.9,35.5,87.9,23.5z"/>
</g>
<g>
	<path fill="#2A4F5D" d="M58.2,32.4c-0.3-0.3-0.5-0.5-0.2-1l1.2-2c0.3-0.5,0.8-0.5,1.2-0.2c1.4,1,2.9,2,5.1,2c1.8,0,3.1-1.1,3.1-2.5
		c0-1.6-1.5-2.8-4.3-3.9c-3.2-1.2-6.4-3.2-6.4-7c0-2.9,2.2-6.2,7.6-6.2c3.5,0,6.1,1.7,6.8,2.2c0.3,0.2,0.4,0.7,0.2,1.1l-1.3,1.8
		c-0.3,0.4-0.8,0.6-1.2,0.4c-1.5-0.9-2.8-1.8-4.7-1.8c-1.9,0-3,1-3,2.3c0,1.5,1.3,2.5,4,3.6c3.3,1.3,7.1,3.1,7.1,7.3
		c0,3.3-3,6.4-7.8,6.4C61.3,34.9,59.1,33.2,58.2,32.4z"/>
</g>
<g>
	<path fill="#2A4F5D" d="M0.5,68.9c-0.1-0.1-0.2-0.2-0.1-0.4L1,67.6c0.1-0.2,0.4-0.2,0.5-0.1c0.6,0.4,1.2,0.9,2.2,0.9
		c0.7,0,1.3-0.5,1.3-1.1c0-0.7-0.6-1.2-1.8-1.7c-1.3-0.5-2.7-1.4-2.7-3.1c0-1.3,0.9-2.7,3.2-2.7c1.5,0,2.6,0.7,2.9,1
		c0.1,0.1,0.2,0.3,0.1,0.5L6,62c-0.1,0.2-0.3,0.3-0.5,0.2c-0.6-0.4-1.2-0.8-2-0.8c-0.8,0-1.3,0.5-1.3,1c0,0.7,0.5,1.1,1.7,1.6
		c1.4,0.6,3,1.4,3,3.2c0,1.5-1.3,2.8-3.3,2.8C1.9,70.1,0.9,69.3,0.5,68.9z"/>
	<path fill="#2A4F5D" d="M11.2,61.6H9c-0.2,0-0.3-0.1-0.3-0.3v-1.2c0-0.1,0.1-0.3,0.3-0.3h6.2c0.2,0,0.3,0.1,0.3,0.3v1.2
		c0,0.1-0.1,0.3-0.3,0.3h-2.2v8c0,0.1-0.1,0.3-0.3,0.3h-1.3c-0.1,0-0.3-0.1-0.3-0.3V61.6z"/>
	<path fill="#2A4F5D" d="M18,60.2c0-0.1,0.1-0.3,0.3-0.3h1.3c0.1,0,0.3,0.1,0.3,0.3v9.5c0,0.1-0.1,0.3-0.3,0.3h-1.3
		c-0.1,0-0.3-0.1-0.3-0.3V60.2z"/>
	<path fill="#2A4F5D" d="M23.2,60.2c0-0.1,0.1-0.3,0.3-0.3h5.8c0.2,0,0.3,0.1,0.3,0.3v1.2c0,0.1-0.1,0.3-0.3,0.3H25v2.7h3.5
		c0.1,0,0.3,0.1,0.3,0.3v1.2c0,0.1-0.1,0.3-0.3,0.3H25v3.6c0,0.1-0.1,0.3-0.3,0.3h-1.3c-0.2,0-0.3-0.1-0.3-0.3V60.2z"/>
	<path fill="#2A4F5D" d="M33.6,61.6h-2.2c-0.2,0-0.3-0.1-0.3-0.3v-1.2c0-0.1,0.1-0.3,0.3-0.3h6.2c0.2,0,0.3,0.1,0.3,0.3v1.2
		c0,0.1-0.1,0.3-0.3,0.3h-2.2v8c0,0.1-0.1,0.3-0.3,0.3h-1.3c-0.1,0-0.3-0.1-0.3-0.3V61.6z"/>
	<path fill="#2A4F5D" d="M40.4,60.2c0-0.1,0.1-0.3,0.3-0.3h5.8c0.2,0,0.3,0.1,0.3,0.3v1.2c0,0.1-0.1,0.3-0.3,0.3h-4.2V64h3.5
		c0.1,0,0.3,0.1,0.3,0.3v1.2c0,0.2-0.1,0.3-0.3,0.3h-3.5v2.5h4.2c0.2,0,0.3,0.1,0.3,0.3v1.2c0,0.1-0.1,0.3-0.3,0.3h-5.8
		c-0.2,0-0.3-0.1-0.3-0.3V60.2z"/>
	<path fill="#2A4F5D" d="M49.5,60.2c0-0.1,0.1-0.3,0.3-0.3h4.1c1.7,0,3.1,1.4,3.1,3.1c0,1.3-0.9,2.4-2.1,2.9l2,3.6
		c0.1,0.2,0,0.4-0.2,0.4H55c-0.1,0-0.2-0.1-0.2-0.1L52.9,66h-1.6v3.6c0,0.1-0.1,0.3-0.3,0.3h-1.3c-0.2,0-0.3-0.1-0.3-0.3V60.2z
		 M53.7,64.5c0.8,0,1.4-0.7,1.4-1.5c0-0.8-0.7-1.4-1.4-1.4h-2.3v2.8H53.7z"/>
	<path fill="#2A4F5D" d="M58.5,60.3c-0.1-0.2,0-0.4,0.2-0.4h1.5c0.1,0,0.2,0.1,0.2,0.2l2.8,6.1h0.1l2.8-6.1c0-0.1,0.1-0.2,0.2-0.2
		h1.5c0.2,0,0.3,0.2,0.2,0.4l-4.4,9.6c0,0.1-0.1,0.2-0.2,0.2h-0.1c-0.1,0-0.2-0.1-0.2-0.2L58.5,60.3z"/>
	<path fill="#2A4F5D" d="M70,60.2c0-0.1,0.1-0.3,0.3-0.3h5.8c0.2,0,0.3,0.1,0.3,0.3v1.2c0,0.1-0.1,0.3-0.3,0.3h-4.2V64h3.5
		c0.1,0,0.3,0.1,0.3,0.3v1.2c0,0.2-0.1,0.3-0.3,0.3h-3.5v2.5h4.2c0.2,0,0.3,0.1,0.3,0.3v1.2c0,0.1-0.1,0.3-0.3,0.3h-5.8
		c-0.2,0-0.3-0.1-0.3-0.3V60.2z"/>
	<path fill="#2A4F5D" d="M79.1,60.2c0-0.1,0.1-0.3,0.3-0.3h4.1c1.7,0,3.1,1.4,3.1,3.1c0,1.3-0.9,2.4-2.1,2.9l2,3.6
		c0.1,0.2,0,0.4-0.2,0.4h-1.5c-0.1,0-0.2-0.1-0.2-0.1L82.6,66H81v3.6c0,0.1-0.1,0.3-0.3,0.3h-1.3c-0.2,0-0.3-0.1-0.3-0.3V60.2z
		 M83.3,64.5c0.8,0,1.4-0.7,1.4-1.5c0-0.8-0.7-1.4-1.4-1.4H81v2.8H83.3z"/>
	<path fill="#2A4F5D" d="M94.5,64.8c0.8,0.3,1.7,1,1.7,2.3c0,1.6-1.4,2.8-3.1,2.8h-3.5c-0.2,0-0.3-0.1-0.3-0.3v-9.5
		c0-0.1,0.1-0.3,0.3-0.3H93c1.7,0,3,1.1,3,2.6C96,63.6,95.3,64.4,94.5,64.8L94.5,64.8z M92.8,64.1c0.7,0,1.2-0.6,1.2-1.3
		s-0.5-1.2-1.2-1.2h-1.6v2.5H92.8z M93,68.2c0.7,0,1.3-0.6,1.3-1.3c0-0.7-0.5-1.2-1.3-1.2h-1.8v2.5H93z"/>
	<path fill="#2A4F5D" d="M97.8,69.5l4.4-9.6c0-0.1,0.1-0.2,0.2-0.2h0.1c0.1,0,0.2,0.1,0.2,0.2l4.4,9.6c0.1,0.2,0,0.4-0.2,0.4h-1.2
		c-0.2,0-0.3-0.1-0.4-0.3l-0.7-1.5h-4.3l-0.7,1.5c-0.1,0.1-0.2,0.3-0.4,0.3H98C97.8,69.9,97.7,69.7,97.8,69.5z M104,66.5l-1.4-3.1h0
		l-1.4,3.1H104z"/>
	<path fill="#2A4F5D" d="M109.4,60c0-0.1,0.1-0.3,0.3-0.3h0.2c0.1,0,0.2,0,0.2,0.1l5.8,6.2h0v-5.9c0-0.1,0.1-0.3,0.3-0.3h1.3
		c0.1,0,0.3,0.1,0.3,0.3v9.6c0,0.1-0.1,0.3-0.3,0.3h-0.2c-0.1,0-0.2,0-0.2-0.1l-5.9-6.5h0v6.1c0,0.1-0.1,0.3-0.3,0.3h-1.3
		c-0.1,0-0.3-0.1-0.3-0.3V60z"/>
	<path fill="#2A4F5D" d="M121.1,60.2c0-0.1,0.1-0.3,0.3-0.3h3.4c2.8,0,5,2.2,5,5c0,2.8-2.3,5-5,5h-3.4c-0.1,0-0.3-0.1-0.3-0.3V60.2z
		 M124.6,68.2c1.9,0,3.2-1.3,3.2-3.3c0-1.9-1.4-3.3-3.2-3.3H123v6.5H124.6z"/>
</g>
</svg>
